Coordinates
version=1
nRows=58
nColumns=6
inDegrees=yes

Units are S.I. units (second, meters, Newtons, ...)
If the header above contains a line with 'inDegrees', this indicates whether rotational values are in degrees (yes) or radians (no).

endheader
time	foot_tx	hip_flexion_r	knee_angle_r	ankle_angle_r	lumbar
     27.40000000	      0.25037765	     48.51926540	    -43.64398720	      9.61836249	    -34.25984436
     27.41000000	      0.25041125	     47.29060106	    -42.46372169	      9.35539490	    -33.83657688
     27.42000000	      0.25043895	     46.05751021	    -41.27957199	      9.09048439	    -33.40153129
     27.43000000	      0.25045823	     44.81970204	    -40.09633935	      8.82664570	    -32.95565045
     27.44000000	      0.25046966	     43.58649684	    -38.91579984	      8.56400394	    -32.49118176
     27.45000000	      0.25047219	     42.35813263	    -37.74007279	      8.30380005	    -32.00837279
     27.46000000	      0.25046545	     41.13819730	    -36.57154295	      8.04690426	    -31.50504991
     27.47000000	      0.25044986	     39.93037019	    -35.41238630	      7.79384063	    -30.97952810
     27.48000000	      0.25042640	     38.73832258	    -34.26454972	      7.54485738	    -30.43073925
     27.49000000	      0.25039649	     37.56584579	    -33.12986849	      7.30005174	    -29.85808008
     27.50000000	      0.25036128	     36.41700011	    -32.01029880	      7.05955942	    -29.26105291
     27.51000000	      0.25032161	     35.29610415	    -30.90811448	      6.82371718	    -28.63899794
     27.52000000	      0.25027913	     34.20521701	    -29.82540884	      6.59304977	    -27.99298969
     27.53000000	      0.25023496	     33.14655972	    -28.76416574	      6.36819122	    -27.32352250
     27.54000000	      0.25018891	     32.11752178	    -27.72711075	      6.15093651	    -26.63557206
     27.55000000	      0.25013737	     31.12653270	    -26.71613726	      5.94191266	    -25.92344216
     27.56000000	      0.25008312	     30.17123108	    -25.73354784	      5.74249395	    -25.19127539
     27.57000000	      0.25002736	     29.25159469	    -24.78108301	      5.55359222	    -24.44234567
     27.58000000	      0.24997236	     28.37045420	    -23.86099713	      5.37571978	    -23.67733904
     27.59000000	      0.24991278	     27.53500783	    -22.97612875	      5.20974374	    -22.89483186
     27.60000000	      0.24985563	     26.74366675	    -22.12794053	      5.05592244	    -22.09798383
     27.61000000	      0.24980700	     26.01901094	    -21.31770933	      4.91248605	    -21.26596682
     27.62000000	      0.24976239	     25.30843149	    -20.54072987	      4.78134554	    -20.45692712
     27.63000000	      0.24972420	     24.61635556	    -19.79592063	      4.66141836	    -19.66645971
     27.64000000	      0.24969477	     23.94572486	    -19.08226786	      4.55176697	    -18.89196586
     27.65000000	      0.24966640	     23.29678085	    -18.40123990	      4.45360051	    -18.13480723
     27.66000000	      0.24964795	     22.66954866	    -17.74815467	      4.36346404	    -17.39423438
     27.67000000	      0.24963431	     22.06492958	    -17.12290956	      4.28109725	    -16.67068733
     27.68000000	      0.24961803	     21.53675934	    -16.53537003	      4.20759948	    -15.91005734
     27.69000000	      0.24960638	     20.96661561	    -15.95918043	      4.13735961	    -15.23189652
     27.70000000	      0.24959214	     20.47019948	    -15.41848600	      4.07480881	    -14.51890653
     27.71000000	      0.24958787	     19.93543025	    -14.88994413	      4.01546781	    -13.88492930
     27.72000000	      0.24959440	     19.48690506	    -14.39723529	      3.96271103	    -13.20165586
     27.73000000	      0.24961535	     18.98594262	    -13.91246356	      3.91236546	    -12.60915106
     27.74000000	      0.24963926	     18.56580366	    -13.46030152	      3.86851654	    -11.96850332
     27.75000000	      0.24966334	     18.09243303	    -13.01336757	      3.82728669	    -11.41414752
     27.76000000	      0.24967971	     17.68059048	    -12.59257787	      3.79193748	    -10.82553203
     27.77000000	      0.24968810	     17.22833244	    -12.17482302	      3.75793804	    -10.30434862
     27.78000000	      0.24968728	     16.79140974	    -11.77158481	      3.72715815	     -9.79334589
     27.79000000	      0.24967448	     16.40201794	    -11.38659616	      3.69920492	     -9.25809893
     27.80000000	      0.24965217	     15.98195965	    -11.00299836	      3.67073759	     -8.77817125
     27.81000000	      0.24961904	     15.57671073	    -10.62839838	      3.64252728	     -8.30599138
     27.82000000	      0.24957365	     15.22301278	    -10.26849081	      3.61514217	     -7.80260802
     27.83000000	      0.24951936	     14.83650313	     -9.90697181	      3.58615422	     -7.35458143
     27.84000000	      0.24945249	     14.50849373	     -9.56055602	      3.55829271	     -6.86655016
     27.85000000	      0.24937933	     14.14454085	     -9.21128207	      3.52903822	     -6.43348093
     27.86000000	      0.24929122	     13.84870536	     -8.87870731	      3.50199461	     -5.94707361
     27.87000000	      0.24919345	     13.53111649	     -8.54529592	      3.47446195	     -5.49788132
     27.88000000	      0.24908680	     13.21849820	     -8.21522080	      3.44701208	     -5.05610187
     27.89000000	      0.24897188	     12.87941820	     -7.88365187	      3.41953506	     -4.65392835
     27.90000000	      0.24884373	     12.60064855	     -7.56817917	      3.39538113	     -4.20191085
     27.91000000	      0.24871338	     12.27157232	     -7.24809072	      3.37086652	     -3.81509942
     27.92000000	      0.24857381	     11.98999255	     -6.94388114	      3.34989525	     -3.39485585
     27.93000000	      0.24843345	     11.67276414	     -6.64083727	      3.32995553	     -3.02923261
     27.94000000	      0.24828874	     11.37422654	     -6.35277212	      3.31462456	     -2.66405582
     27.95000000	      0.24814757	     11.11143114	     -6.08174658	      3.30343276	     -2.28092789
     27.96000000	      0.24802131	     10.81955594	     -5.81373806	      3.29292066	     -1.94728380
     27.97000000	      0.24790183	     10.54016518	     -5.56332477	      3.28846698	     -1.62218227
